<svg width="325" height="144" viewBox="0 0 325 144" fill="none" xmlns="http://www.w3.org/2000/svg">
<g clip-path="url(#clip0_1_142)">
<path d="M244.9 61.932V35.1171C244.9 32.4434 246.956 30.2684 249.483 30.2684H266.061C268.588 30.2684 270.644 32.4434 270.644 35.1171V61.932C270.644 64.6057 268.588 66.7808 266.061 66.7808H249.483C246.956 66.7808 244.9 64.6057 244.9 61.932Z" fill="#0D1B2A"/>
<path d="M253.39 41.8596H262.154V39.5414H253.39V41.8596Z" fill="#3F3D56"/>
<path d="M255.581 37.8027H259.963V30.2684H255.581V37.8027Z" fill="#3F3D56"/>
<path d="M255.581 66.7808H259.963V59.2465H255.581V66.7808Z" fill="#3F3D56"/>
<path d="M233.124 63.0158H207.782C205.255 63.0158 203.2 60.8407 203.2 58.167V40.6251C203.2 37.9514 205.255 35.7764 207.782 35.7764H233.124C235.651 35.7764 237.707 37.9514 237.707 40.6251V58.167C237.707 60.8407 235.651 63.0158 233.124 63.0158Z" fill="#0D1B2A"/>
<path d="M225.383 39.5435H216.619V41.8618H225.383V39.5435Z" fill="#3F3D56"/>
<path d="M210.32 51.7143V47.0778H203.2V51.7143H210.32Z" fill="#3F3D56"/>
<path d="M237.707 51.7143V47.0778H230.586V51.7143H237.707Z" fill="#3F3D56"/>
<path d="M27.5541 113.159L23.3235 87.0458C21.4436 75.4425 29.5599 64.7051 40.671 64.0962L100.982 60.791L115.376 35.6888C117.285 32.3609 120.696 30.3287 124.375 30.3287H167.71C171.117 30.3287 173.995 33.0016 174.437 36.5755L175.538 56.6611L283.577 57.0034L297.168 104.397L284.553 103.746L285.2 118.122L268.703 118.806L263.204 102.352C262.168 99.2542 257.63 95.7608 252.914 92.838C242.34 86.2858 228.756 88.3888 220.755 98.2081C218.867 100.524 217.547 102.938 217.179 105.201L214.683 120.518L93.7042 118.464L77.8488 94.9956C73.1644 89.6016 51.0512 87.6203 49.0597 94.9956L37.0965 113.672L27.5541 113.159H27.5541Z" fill="#1E335B"/>
<path d="M159.045 45.6031L162.604 63.358L117.318 64.3849L126.882 42.6556C127.75 40.6844 129.655 39.4606 131.708 39.555L153.409 40.5534C156.156 40.6798 158.474 42.7569 159.045 45.6031V45.6031Z" fill="white"/>
<path d="M111.172 63.0157L120.229 38.3721L117.858 35.863L103.085 59.593L106.087 64.3848L111.172 63.0157Z" fill="white"/>
<path d="M240.884 143.108C252.675 143.108 262.233 132.994 262.233 120.518C262.233 108.041 252.675 97.9276 240.884 97.9276C229.093 97.9276 219.535 108.041 219.535 120.518C219.535 132.994 229.093 143.108 240.884 143.108Z" fill="#0D1B2A"/>
<path d="M226.166 120.518C226.166 111.93 232.769 104.944 240.884 104.944C249 104.944 255.602 111.93 255.602 120.518C255.602 129.105 249 136.091 240.884 136.091C232.769 136.091 226.166 129.105 226.166 120.518ZM226.49 120.518C226.49 128.916 232.947 135.749 240.884 135.749C248.822 135.749 255.279 128.916 255.279 120.518C255.279 112.119 248.822 105.286 240.884 105.286C232.947 105.286 226.49 112.119 226.49 120.518Z" fill="white"/>
<path d="M228.269 120.518C228.269 127.89 233.917 133.866 240.884 133.866C247.852 133.866 253.5 127.89 253.5 120.518C253.5 113.145 247.852 107.169 240.884 107.169C233.917 107.169 228.269 113.145 228.269 120.518ZM249.085 117.321L246.849 118.862L245.991 117.468L249.085 117.321ZM245.682 125.161L246.277 123.62L248.151 126.229L245.682 125.161ZM239.958 130.443L241.531 127.62V130.443H239.958ZM239.958 114.099L241.531 111.276V114.099H239.958ZM232.97 126.229L234.844 123.62L235.44 125.161L232.97 126.229ZM232.037 117.321L235.131 117.468L234.272 118.862L232.037 117.321Z" fill="#E6E6E6"/>
<path d="M61.6804 143.108C73.4713 143.108 83.0296 132.994 83.0296 120.518C83.0296 108.041 73.4713 97.9276 61.6804 97.9276C49.8896 97.9276 40.3312 108.041 40.3312 120.518C40.3312 132.994 49.8896 143.108 61.6804 143.108Z" fill="#0D1B2A"/>
<path d="M46.9624 120.518C46.9624 111.93 53.5648 104.944 61.6804 104.944C69.796 104.944 76.3984 111.93 76.3984 120.518C76.3984 129.105 69.796 136.091 61.6804 136.091C53.5648 136.091 46.9624 129.105 46.9624 120.518ZM47.2859 120.518C47.2859 128.916 53.7432 135.749 61.6804 135.749C69.6176 135.749 76.0749 128.916 76.0749 120.518C76.0749 112.119 69.6176 105.286 61.6804 105.286C53.7432 105.286 47.2859 112.119 47.2859 120.518Z" fill="white"/>
<path d="M49.065 120.518C49.065 127.89 54.7131 133.866 61.6804 133.866C68.6478 133.866 74.2959 127.89 74.2959 120.518C74.2959 113.145 68.6478 107.169 61.6804 107.169C54.7131 107.169 49.065 113.145 49.065 120.518ZM69.8809 117.321L67.6457 118.862L66.7869 117.468L69.8809 117.321ZM66.478 125.161L67.0733 123.62L68.9476 126.229L66.478 125.161ZM60.7546 130.443L62.3274 127.62V130.443H60.7546ZM60.7546 114.099L62.3274 111.276V114.099H60.7546ZM53.7663 126.229L55.6406 123.62L56.2359 125.161L53.7663 126.229ZM52.833 117.321L55.927 117.468L55.0682 118.862L52.833 117.321Z" fill="#E6E6E6"/>
<path d="M150.797 72.4283H163.089V69.6901H150.797V72.4283Z" fill="#3F3D56"/>
<path d="M324.051 126.18C323.936 125.809 323.068 125.973 322.985 125.641C322.902 125.31 323.735 125.033 324.374 124.101C324.489 123.933 325.215 122.874 324.937 122.429C324.409 121.585 320.736 123.687 319.854 122.507C319.66 122.249 319.581 121.804 319.004 120.977C318.775 120.648 318.628 120.489 318.452 120.494C318.203 120.5 318.113 120.83 317.721 121.429C317.133 122.326 316.921 122.213 316.534 122.948C316.246 123.493 316.212 123.842 316.005 123.863C315.711 123.892 315.59 123.212 315.232 123.186C314.866 123.159 314.5 123.83 314.318 124.355C313.978 125.339 314.189 126.091 314.235 126.841C314.286 127.655 314.167 128.848 313.33 130.378L305.44 143.68C307.135 140.968 311.945 133.574 313.883 130.862C314.442 130.079 315.043 129.292 315.969 129.144C316.859 129.002 317.943 129.468 319.456 129.441C319.633 129.438 320.125 129.423 320.244 129.147C320.343 128.919 320.098 128.721 320.187 128.506C320.307 128.219 320.846 128.342 321.581 128.151C322.099 128.017 322.45 127.794 322.753 127.603C322.844 127.545 324.204 126.674 324.051 126.18H324.051Z" fill="#1E335B"/>
<path d="M303.386 129.286C303.18 129.238 303.006 129.736 302.828 129.684C302.65 129.632 302.762 129.119 302.514 128.518C302.47 128.41 302.188 127.727 301.901 127.743C301.357 127.774 301.273 130.288 300.471 130.406C300.295 130.432 300.066 130.345 299.516 130.405C299.297 130.429 299.181 130.46 299.132 130.553C299.063 130.684 299.191 130.826 299.355 131.202C299.602 131.766 299.488 131.844 299.717 132.257C299.887 132.564 300.039 132.682 299.989 132.796C299.918 132.956 299.568 132.823 299.452 133.002C299.334 133.184 299.54 133.568 299.731 133.814C300.089 134.274 300.499 134.382 300.86 134.574C301.252 134.782 301.771 135.189 302.24 136.065L306.133 144C305.364 142.338 303.322 137.706 302.623 135.917C302.421 135.401 302.23 134.862 302.428 134.338C302.619 133.835 303.149 133.406 303.572 132.613C303.622 132.52 303.757 132.26 303.663 132.119C303.586 132.001 303.423 132.072 303.35 131.963C303.251 131.818 303.464 131.574 303.587 131.137C303.674 130.83 303.672 130.583 303.671 130.37C303.671 130.306 303.659 129.349 303.386 129.286V129.286V129.286Z" fill="#1E335B"/>
<path d="M307.27 131.222L307.392 130.026L307.467 129.951C307.814 129.604 308.032 129.236 308.113 128.858C308.126 128.797 308.136 128.736 308.146 128.674C308.187 128.429 308.237 128.123 308.461 127.806C308.586 127.629 308.916 127.229 309.257 127.369C309.349 127.405 309.412 127.468 309.455 127.535C309.466 127.524 309.477 127.512 309.489 127.5C309.636 127.348 309.739 127.293 309.838 127.239C309.914 127.198 309.993 127.156 310.127 127.043C310.185 126.993 310.232 126.949 310.271 126.912C310.391 126.798 310.544 126.666 310.754 126.719C310.976 126.783 311.052 127.007 311.103 127.156C311.193 127.421 311.221 127.603 311.239 127.723C311.246 127.768 311.253 127.817 311.259 127.833C311.308 127.963 311.919 127.997 312.148 128.011C312.665 128.04 313.112 128.066 313.219 128.44C313.296 128.708 313.135 129 312.728 129.331C312.601 129.434 312.474 129.505 312.363 129.558C312.431 129.626 312.485 129.719 312.488 129.845C312.496 130.144 312.207 130.373 311.628 130.527C311.485 130.566 311.291 130.617 311.039 130.604C310.92 130.598 310.815 130.579 310.726 130.561C310.713 130.614 310.689 130.67 310.645 130.723C310.516 130.879 310.308 130.919 310.026 130.831C309.715 130.739 309.469 130.614 309.252 130.504C309.062 130.409 308.898 130.327 308.761 130.305C308.506 130.267 308.268 130.434 307.983 130.655L307.27 131.222L307.27 131.222Z" fill="#1E335B"/>
<path d="M309.306 124.412L308.182 124.59L308.095 124.533C307.689 124.265 307.298 124.136 306.931 124.149C306.873 124.151 306.814 124.156 306.755 124.161C306.52 124.182 306.228 124.208 305.881 124.06C305.688 123.977 305.239 123.74 305.28 123.355C305.29 123.252 305.332 123.172 305.382 123.111C305.369 123.103 305.355 123.095 305.341 123.086C305.165 122.973 305.088 122.882 305.014 122.794C304.957 122.726 304.898 122.656 304.761 122.548C304.701 122.501 304.649 122.465 304.605 122.434C304.471 122.34 304.311 122.217 304.306 121.989C304.308 121.745 304.494 121.61 304.617 121.521C304.836 121.361 304.996 121.287 305.101 121.237C305.14 121.219 305.183 121.199 305.197 121.189C305.303 121.106 305.179 120.472 305.133 120.234C305.029 119.698 304.94 119.234 305.254 119.029C305.48 118.882 305.787 118.972 306.193 119.306C306.32 119.41 306.417 119.522 306.494 119.621C306.539 119.535 306.61 119.456 306.724 119.42C306.995 119.337 307.278 119.575 307.566 120.127C307.638 120.265 307.734 120.449 307.786 120.712C307.81 120.835 307.819 120.947 307.825 121.042C307.878 121.042 307.935 121.053 307.994 121.085C308.169 121.177 308.258 121.379 308.25 121.69C308.245 122.032 308.193 122.316 308.148 122.566C308.108 122.784 308.075 122.972 308.089 123.119C308.12 123.389 308.332 123.591 308.608 123.826L309.306 124.413H309.306L309.306 124.412Z" fill="#1E335B"/>
<path d="M309.458 120.841L309.58 119.646L309.655 119.571C310.003 119.223 310.22 118.855 310.301 118.477C310.314 118.417 310.324 118.356 310.335 118.294C310.375 118.048 310.426 117.742 310.649 117.425C310.774 117.248 311.105 116.848 311.446 116.988C311.538 117.024 311.6 117.088 311.643 117.155C311.654 117.143 311.665 117.131 311.677 117.119C311.824 116.967 311.927 116.912 312.026 116.858C312.103 116.817 312.181 116.775 312.315 116.662C312.373 116.613 312.42 116.568 312.459 116.531C312.579 116.418 312.732 116.285 312.942 116.338C313.164 116.402 313.24 116.626 313.291 116.775C313.381 117.04 313.409 117.222 313.427 117.343C313.434 117.387 313.442 117.437 313.447 117.453C313.496 117.582 314.107 117.616 314.336 117.63C314.853 117.66 315.3 117.685 315.407 118.059C315.484 118.327 315.324 118.619 314.916 118.95C314.789 119.053 314.662 119.124 314.551 119.178C314.619 119.246 314.673 119.338 314.677 119.464C314.684 119.763 314.395 119.992 313.817 120.146C313.673 120.185 313.48 120.237 313.227 120.224C313.108 120.217 313.003 120.198 312.914 120.18C312.901 120.234 312.877 120.289 312.833 120.342C312.704 120.498 312.496 120.538 312.214 120.45C311.903 120.358 311.657 120.233 311.44 120.124C311.25 120.028 311.087 119.946 310.949 119.924C310.694 119.886 310.456 120.053 310.171 120.275L309.458 120.841L309.458 120.841Z" fill="#1E335B"/>
<path d="M305.813 143.748L305.615 143.54L305.618 143.245L305.615 143.54L305.338 143.509C305.34 143.482 305.338 143.417 305.336 143.317C305.325 142.767 305.292 141.093 305.513 138.521C305.666 136.726 305.923 134.904 306.276 133.104C306.63 131.302 306.997 129.96 307.292 128.883C307.515 128.069 307.739 127.298 307.958 126.547C308.543 124.54 309.096 122.645 309.438 120.482C309.514 120 309.673 118.995 309.348 117.809C309.159 117.121 308.836 116.474 308.387 115.885L308.821 115.514C309.317 116.164 309.675 116.881 309.884 117.645C310.245 118.96 310.072 120.054 309.989 120.58C309.641 122.781 309.083 124.695 308.492 126.721C308.274 127.469 308.05 128.237 307.828 129.047C307.536 130.115 307.172 131.444 306.823 133.224C306.474 135.002 306.221 136.802 306.068 138.575C305.851 141.114 305.884 142.763 305.894 143.305C305.9 143.594 305.901 143.654 305.813 143.748V143.748Z" fill="#1E335B"/>
<path d="M307.194 116.566C307.171 116.56 307.149 116.554 307.126 116.547C306.668 116.411 306.3 116.016 306.033 115.372C305.908 115.07 305.878 114.751 305.819 114.116C305.81 114.018 305.769 113.522 305.82 112.866C305.852 112.436 305.896 112.264 306.006 112.129C306.129 111.978 306.294 111.891 306.468 111.848C306.473 111.791 306.491 111.736 306.526 111.683C306.669 111.464 306.909 111.554 307.04 111.601C307.106 111.626 307.187 111.658 307.279 111.674C307.424 111.701 307.511 111.674 307.641 111.634C307.767 111.595 307.922 111.547 308.137 111.551C308.562 111.558 308.876 111.759 308.98 111.826C309.525 112.173 309.714 112.726 309.932 113.367C309.975 113.496 310.119 113.96 310.152 114.558C310.176 114.989 310.123 115.166 310.062 115.292C309.937 115.552 309.745 115.672 309.27 115.925C308.773 116.19 308.524 116.323 308.319 116.391C307.844 116.549 307.545 116.649 307.194 116.566V116.566V116.566Z" fill="#1E335B"/>
<path d="M0 143.234C0 143.46 0.299303 143.642 0.672018 143.642H321.483C321.855 143.642 322.155 143.46 322.155 143.234C322.155 143.008 321.855 142.827 321.483 142.827H0.672018C0.299303 142.827 0 143.008 0 143.234Z" fill="#CCCCCC"/>
<path d="M163.011 140.663L167.502 140.662L169.639 122.331L163.01 122.332L163.011 140.663Z" fill="#FFB6B6"/>
<path d="M178.399 140.555C178.539 140.804 178.612 141.608 178.612 141.898C178.612 142.789 177.93 143.511 177.088 143.511L163.179 143.511C162.605 143.511 162.139 143.018 162.139 142.411V141.798C162.139 141.798 161.451 139.956 162.868 137.687C162.868 137.687 164.628 139.464 167.259 136.68L168.035 135.193L173.651 139.539L176.764 139.944C177.445 140.033 178.048 139.93 178.399 140.555H178.399L178.399 140.555Z" fill="#2F2E41"/>
<path d="M142.832 140.663L147.323 140.662L149.46 122.331L142.831 122.332L142.832 140.663Z" fill="#FFB6B6"/>
<path d="M158.22 140.555C158.359 140.804 158.433 141.608 158.433 141.898C158.433 142.789 157.751 143.511 156.909 143.511L143 143.511C142.426 143.511 141.96 143.018 141.96 142.411V141.798C141.96 141.798 141.272 139.956 142.688 137.687C142.688 137.687 144.449 139.464 147.08 136.68L147.856 135.193L153.472 139.539L156.584 139.944C157.265 140.033 157.869 139.93 158.22 140.555H158.22L158.22 140.555Z" fill="#2F2E41"/>
<path d="M162.3 15.4966L163.152 23.917L153.205 23.0148L154.91 15.1959L162.3 15.4966Z" fill="#FFB6B6"/>
<path opacity="0.1" d="M162.3 15.4966L163.152 23.917L153.205 23.0148L154.91 15.1959L162.3 15.4966Z" fill="black"/>
<path d="M158.747 16.5491C162.357 16.5491 165.284 13.4523 165.284 9.63231C165.284 5.81227 162.357 2.71552 158.747 2.71552C155.137 2.71552 152.21 5.81227 152.21 9.63231C152.21 13.4523 155.137 16.5491 158.747 16.5491Z" fill="#FFB6B6"/>
<path d="M163.01 20.4586L173.952 27.2251L170.367 45.5696L172.815 70.2295L171.11 130.676L160.594 129.473L159.173 78.0484L150.931 131.278H140.72L142.405 73.8382L147.521 49.4791L144.394 23.0148L153.915 19.8572L163.01 20.4586Z" fill="#2F2E41"/>
<path d="M163.436 11.5871C163.436 11.5871 164.005 9.48196 165.284 9.63233C166.563 9.7827 166.847 8.57977 166.563 7.97832C166.279 7.37686 165.71 4.36955 165.71 4.36955C165.71 4.36955 165.994 2.26444 164.289 1.96371C162.584 1.66298 162.015 1.36225 161.731 0.760794C161.447 0.159332 157.184 -0.442126 155.763 0.460063C154.342 1.36225 153.205 3.09323 152.21 3.58103C151.215 4.06883 150.363 4.97101 150.931 6.47466C151.5 7.97831 152.324 10.9191 152.324 10.9191C152.324 10.9191 153.773 10.3842 154.057 11.2863C154.342 12.1885 153.205 10.9856 154.626 8.57978C156.047 6.17394 156.047 3.76809 158.321 4.67029C160.594 5.57248 163.152 5.27175 162.868 7.07613C162.584 8.88051 163.436 11.5871 163.436 11.5871L163.436 11.5871Z" fill="#2F2E41"/>
<path d="M168.31 64.8347C166.942 66.3674 166.58 68.3566 167.502 69.2777C168.424 70.1987 170.28 69.7028 171.648 68.1693C172.203 67.5647 172.613 66.8284 172.843 66.022L178.562 59.4505L175.59 56.6766L170.268 63.4494C169.52 63.739 168.849 64.2141 168.31 64.8347Z" fill="#FFB6B6"/>
<path d="M173.837 27.0746L183.468 44.4358L184.894 52.3615L175.621 64.8163L171.697 59.5324L176.334 52.3615L168.844 38.3971L173.837 27.0746Z" fill="#2F2E41"/>
<path d="M146.76 63.2182V42.7485C146.76 39.6285 149.159 37.0905 152.107 37.0905H181.679C184.627 37.0905 187.026 39.6285 187.026 42.7485V63.2182C187.026 66.3381 184.627 68.8762 181.679 68.8762H152.107C149.159 68.8762 146.76 66.3381 146.76 63.2182Z" fill="#0D1B2A"/>
<path d="M161.141 50.0101H171.367V47.305H161.141V50.0101Z" fill="#3F3D56"/>
<path d="M170.529 68.6948V63.2845H162.22V68.6948H170.529Z" fill="#3F3D56"/>
<path d="M170.919 42.6821V37.2718H162.61V42.6821H170.919Z" fill="#3F3D56"/>
<path d="M149.753 60.9252C151.121 62.4579 151.482 64.4471 150.56 65.3682C149.638 66.2892 147.782 65.7933 146.414 64.2599C145.859 63.6553 145.45 62.9189 145.219 62.1125L139.5 55.541L142.472 52.7671L147.794 59.5399C148.542 59.8296 149.214 60.3046 149.753 60.9252Z" fill="#FFB6B6"/>
<path d="M144.225 23.1652L134.595 40.5263L133.168 48.4521L142.442 60.9068L146.365 55.623L141.728 48.4521L149.219 34.4876L144.225 23.1652Z" fill="#2F2E41"/>
<path d="M24.4758 105.948C29.2993 105.948 33.2096 102.347 33.2096 97.9049C33.2096 93.4627 29.2993 89.8615 24.4758 89.8615C19.6523 89.8615 15.742 93.4627 15.742 97.9049C15.742 102.347 19.6523 105.948 24.4758 105.948Z" fill="#1E335B"/>
</g>
<defs>
<clipPath id="clip0_1_142">
<rect width="325" height="144" fill="white"/>
</clipPath>
</defs>
</svg>
